<svg width="27" height="28" viewBox="0 0 27 28" fill="none" xmlns="http://www.w3.org/2000/svg">
<path d="M17.5882 27V2C17.5882 1.44772 17.1405 1 16.5882 1H10.174C9.62172 1 9.174 1.44772 9.174 2V27M17.5882 27L17.5859 11.8074C17.5858 11.255 18.0336 10.8072 18.5859 10.8072H25C25.5523 10.8072 26 11.2549 26 11.8072V26C26 26.5523 25.5523 27 25 27H17.5882ZM17.5882 27H9.174M9.174 27V19.4173C9.174 18.865 8.72629 18.4173 8.174 18.4173H2C1.44772 18.4173 1 18.865 1 19.4173V26C1 26.5523 1.44772 27 2 27H9.174Z" stroke="#4C4C4C" stroke-width="2" stroke-linecap="round" stroke-linejoin="round"/>
</svg>
