<svg width="27" height="29" viewBox="0 0 27 29" fill="none" xmlns="http://www.w3.org/2000/svg">
<path d="M17.5882 27.3643V2.36426C17.5882 1.81197 17.1405 1.36426 16.5882 1.36426H10.174C9.62172 1.36426 9.174 1.81197 9.174 2.36426V27.3643M17.5882 27.3643L17.5859 12.1716C17.5858 11.6193 18.0336 11.1715 18.5859 11.1715H25C25.5523 11.1715 26 11.6192 26 12.1715V26.3643C26 26.9165 25.5523 27.3643 25 27.3643H17.5882ZM17.5882 27.3643H9.174M9.174 27.3643V19.7815C9.174 19.2292 8.72629 18.7815 8.174 18.7815H2C1.44772 18.7815 1 19.2292 1 19.7815V26.3643C1 26.9165 1.44772 27.3643 2 27.3643H9.174Z" stroke="#00C493" stroke-width="2" stroke-linecap="round" stroke-linejoin="round"/>
</svg>
