<svg width="61" height="29" viewBox="0 0 61 29" fill="none" xmlns="http://www.w3.org/2000/svg">
<path d="M14.7479 9.73486C15.2532 9.73486 17.0613 9.77979 18.2405 11.498C18.1395 11.5767 16.3426 12.5874 16.3426 14.856C16.3426 17.4839 18.6336 18.416 18.701 18.4385C18.6898 18.4946 18.3304 19.7075 17.4993 20.9541C16.7469 22.0322 15.9495 23.1216 14.7479 23.1216C13.5462 23.1216 13.2317 22.4253 11.8616 22.4253C10.5027 22.4253 10.0198 23.144 8.93047 23.144C7.82989 23.144 7.05499 22.1333 6.19024 20.9092C5.16827 19.438 4.33721 17.1807 4.33721 15.0356C4.33721 11.6104 6.57207 9.77979 8.77325 9.77979C9.92999 9.77979 10.907 10.5435 11.637 10.5435C12.3333 10.5435 13.4114 9.73486 14.7479 9.73486ZM14.1302 8.28613C13.535 9.00488 12.5242 9.54395 11.7269 9.54395C11.637 9.54395 11.5472 9.53271 11.491 9.52148C11.4798 9.47656 11.4573 9.33057 11.4573 9.1958C11.4573 8.28613 11.929 7.37646 12.4231 6.80371C13.0633 6.05127 14.1414 5.50098 15.0174 5.46729C15.0398 5.56836 15.0511 5.69189 15.0511 5.81543C15.0511 6.7251 14.6692 7.62354 14.1302 8.28613ZM23.1155 6.73633H29.6516C32.886 6.73633 35.0984 8.94873 35.0984 12.2168C35.0984 15.4287 32.8074 17.6299 29.5281 17.6299H26.013V22.9419H23.1155V6.73633ZM26.013 9.16211V15.2266H28.8767C30.9431 15.2266 32.156 14.1484 32.156 12.2168C32.156 10.229 30.9768 9.16211 28.888 9.16211H26.013ZM40.5349 20.9541C42.2195 20.9541 43.4773 19.8647 43.4773 18.4385V17.4614L40.7033 17.6411C39.1423 17.7422 38.4123 18.3037 38.4123 19.3032C38.4123 20.3364 39.2995 20.9541 40.5349 20.9541ZM39.7151 23.144C37.3454 23.144 35.6496 21.7065 35.6496 19.4604C35.6496 17.2368 37.323 15.9565 40.3103 15.7769L43.4773 15.5859V14.5527C43.4773 13.3511 42.6687 12.6772 41.1638 12.6772C39.8835 12.6772 39.0075 13.1265 38.7492 13.9575H36.1213C36.3459 11.79 38.3786 10.4087 41.2986 10.4087C44.4543 10.4087 46.2287 11.9473 46.2287 14.5527V22.9419H43.5447V21.2573H43.3537C42.6687 22.4478 41.321 23.144 39.7151 23.144ZM49.3293 27.4004C49.1608 27.4004 48.4084 27.3892 48.2287 27.3555V25.0757C48.3859 25.1094 48.8015 25.1206 48.9924 25.1206C50.1716 25.1206 50.8342 24.6714 51.1935 23.5371L51.3395 22.998L46.9484 10.6558H50.0031L52.8781 20.2466H53.069L55.9328 10.6558H58.8752L54.4392 23.335C53.3947 26.3896 52.0808 27.4004 49.3293 27.4004Z" fill="black"/>
</svg>
