<svg width="21" height="20" viewBox="0 0 21 20" fill="none" xmlns="http://www.w3.org/2000/svg">
<path d="M10.6246 5.6435C9.84876 5.6435 8.64778 4.76137 7.38304 4.79326C5.71444 4.81451 4.184 5.76041 3.32312 7.25897C1.59075 10.2667 2.87675 14.7092 4.56661 17.1537C5.3956 18.344 6.37338 19.6832 7.67 19.6407C8.91349 19.5875 9.38112 18.8329 10.8903 18.8329C12.3889 18.8329 12.814 19.6407 14.1319 19.6088C15.471 19.5875 16.3212 18.3972 17.1396 17.1962C18.0855 15.8146 18.4787 14.4754 18.5 14.401C18.4681 14.3904 15.8961 13.402 15.8642 10.4261C15.843 7.93916 17.8942 6.74882 17.9899 6.69568C16.8208 4.98456 15.0246 4.79326 14.3976 4.75074C12.7608 4.62321 11.3898 5.6435 10.6246 5.6435ZM13.3879 3.13528C14.0787 2.30629 14.5357 1.14783 14.4082 0C13.4198 0.0425123 12.2294 0.65894 11.5174 1.48793C10.8797 2.22126 10.327 3.40098 10.4758 4.52756C11.5705 4.61258 12.6971 3.96427 13.3879 3.13528Z" fill="#3A383F"/>
</svg>
