<svg width="17" height="19" viewBox="0 0 17 19" fill="none" xmlns="http://www.w3.org/2000/svg">
<path d="M1 4.4H2.7M2.7 4.4H16.3M2.7 4.4V16.3C2.7 16.7509 2.87911 17.1833 3.19792 17.5021C3.51673 17.8209 3.94913 18 4.4 18H12.9C13.3509 18 13.7833 17.8209 14.1021 17.5021C14.4209 17.1833 14.6 16.7509 14.6 16.3V4.4M5.25 4.4V2.7C5.25 2.24913 5.42911 1.81673 5.74792 1.49792C6.06673 1.17911 6.49913 1 6.95 1H10.35C10.8009 1 11.2333 1.17911 11.5521 1.49792C11.8709 1.81673 12.05 2.24913 12.05 2.7V4.4M6.95 8.65V13.75M10.35 8.65V13.75" stroke="#1E1E1E" stroke-opacity="0.62" stroke-width="0.85" stroke-linecap="round" stroke-linejoin="round"/>
</svg>
