<svg width="62" height="24" viewBox="0 0 62 24" fill="none" xmlns="http://www.w3.org/2000/svg">
<path fill-rule="evenodd" clip-rule="evenodd" d="M29.818 18.5178V11.6383V11.6369H33.5396C35.0739 11.6378 36.3634 11.1557 37.408 10.1906C38.4638 9.27455 39.054 7.95752 39.024 6.58475C39.0449 5.21959 38.4557 3.91233 37.408 2.99928C36.3726 2.02883 34.9799 1.49934 33.5396 1.52849H27.5654V18.5178H29.818ZM29.8179 9.55084V3.62024V3.61889H33.5955C34.4374 3.59596 35.249 3.92422 35.8242 4.52034C36.403 5.0655 36.7295 5.81432 36.7295 6.59639C36.7295 7.37846 36.403 8.12727 35.8242 8.67244C35.2419 9.25601 34.4328 9.57489 33.5955 9.55084H29.8179Z" fill="#5F6368"/>
<path fill-rule="evenodd" clip-rule="evenodd" d="M48.1565 7.80737C47.193 6.94523 45.8788 6.51416 44.2139 6.51416C42.0751 6.51416 40.4601 7.27328 39.3688 8.79151L41.3527 10.002C42.0858 8.97361 43.0815 8.4594 44.3398 8.4594C45.142 8.4503 45.9183 8.73441 46.514 9.25511C47.1079 9.73086 47.4495 10.4402 47.4444 11.1868V11.6856C46.5788 11.2112 45.4772 10.974 44.1397 10.974C42.5727 10.9758 41.3201 11.3318 40.3817 12.0422C39.4434 12.7525 38.9742 13.7091 38.9742 14.9119C38.9538 16.0072 39.4442 17.053 40.309 17.7586C41.1988 18.5177 42.3046 18.8973 43.6262 18.8973C45.1746 18.8973 46.4151 18.233 47.3478 16.9046H47.4458V18.5177H49.6004V11.3535C49.6013 9.85156 49.12 8.66951 48.1565 7.80737ZM42.0472 16.3826C41.5754 16.0531 41.297 15.5228 41.3001 14.9593C41.3001 14.3262 41.6065 13.7989 42.2235 13.3651C42.8344 12.9377 43.5974 12.724 44.5124 12.724C45.7688 12.724 46.7482 12.9951 47.4505 13.5373C47.4505 14.4537 47.0774 15.2521 46.3312 15.9326C45.6592 16.5839 44.748 16.9504 43.7975 16.952C43.1638 16.9635 42.5454 16.7623 42.0472 16.3826Z" fill="#5F6368"/>
<path fill-rule="evenodd" clip-rule="evenodd" d="M61.9692 6.89404L54.4477 23.6421H52.1224L54.9136 17.7819L49.9678 6.89404H52.4162L55.9909 15.2443H56.0398L59.5166 6.89404L61.9692 6.89404Z" fill="#5F6368"/>
<path fill-rule="evenodd" clip-rule="evenodd" d="M20.7153 10.1554C20.7162 9.49034 20.6581 8.82639 20.5418 8.1709H11.042V11.9299H16.4831C16.2581 13.143 15.5313 14.2145 14.4712 14.8959V17.3359H17.7185C19.6198 15.6374 20.7153 13.1255 20.7153 10.1554Z" fill="#4285F4"/>
<path fill-rule="evenodd" clip-rule="evenodd" d="M11.0424 19.6934C13.7608 19.6934 16.0497 18.8285 17.7188 17.3374L14.4715 14.8974C13.5677 15.4911 12.4037 15.83 11.0424 15.83C8.41486 15.83 6.18471 14.1139 5.38722 11.8013H2.04199V14.3158C3.7519 17.6125 7.23434 19.6932 11.0424 19.6934Z" fill="#34A853"/>
<path fill-rule="evenodd" clip-rule="evenodd" d="M5.38663 11.8008C4.96503 10.589 4.96503 9.27668 5.38663 8.06487V5.55029H2.0414C0.611202 8.30769 0.611202 11.558 2.0414 14.3154L5.38663 11.8008Z" fill="#FBBC04"/>
<path fill-rule="evenodd" clip-rule="evenodd" d="M11.0424 4.03637C12.4789 4.01363 13.867 4.53952 14.9067 5.50038L17.7818 2.71469C15.9587 1.05558 13.5434 0.144701 11.0424 0.173004C7.23434 0.173172 3.7519 2.25386 2.04199 5.55053L5.38722 8.06511C6.18471 5.75251 8.41486 4.03637 11.0424 4.03637Z" fill="#EA4335"/>
</svg>
