<svg width="18" height="18" viewBox="0 0 18 18" fill="none" xmlns="http://www.w3.org/2000/svg">
<path fill-rule="evenodd" clip-rule="evenodd" d="M17.3332 9.36336C17.3332 8.76039 17.2791 8.18061 17.1786 7.62402H9.16992V10.9133H13.7463C13.5492 11.9762 12.9501 12.8768 12.0495 13.4798V15.6134H14.7976C16.4056 14.133 17.3332 11.953 17.3332 9.36336Z" fill="#4285F4"/>
<path fill-rule="evenodd" clip-rule="evenodd" d="M9.16927 17.6729C11.4652 17.6729 13.3901 16.9115 14.797 15.6128L12.0488 13.4792C11.2874 13.9894 10.3134 14.2909 9.16927 14.2909C6.95452 14.2909 5.0799 12.7951 4.41122 10.7852H1.57031V12.9883C2.96951 15.7674 5.84521 17.6729 9.16927 17.6729Z" fill="#34A853"/>
<path fill-rule="evenodd" clip-rule="evenodd" d="M4.41236 10.786C4.24229 10.2758 4.14566 9.73082 4.14566 9.17037C4.14566 8.60992 4.24229 8.06492 4.41236 7.55472V5.35156H1.57145C0.995533 6.49952 0.666992 7.79823 0.666992 9.17037C0.666992 10.5425 0.995533 11.8412 1.57145 12.9892L4.41236 10.786Z" fill="#FBBC05"/>
<path fill-rule="evenodd" clip-rule="evenodd" d="M9.16927 4.04903C10.4177 4.04903 11.5386 4.47807 12.4199 5.32068L14.8588 2.88174C13.3862 1.5096 11.4613 0.666992 9.16927 0.666992C5.84521 0.666992 2.96951 2.57253 1.57031 5.3516L4.41122 7.55475C5.0799 5.54486 6.95452 4.04903 9.16927 4.04903Z" fill="#EA4335"/>
</svg>
