<svg width="38" height="39" viewBox="0 0 38 39" fill="none" xmlns="http://www.w3.org/2000/svg">
<path d="M3.53809 0.799805C5.02285 0.800064 6.27539 2.05687 6.27539 3.66797C6.27526 5.27895 5.02277 6.5349 3.53809 6.53516C2.0532 6.53516 0.799938 5.27912 0.799805 3.66797C0.799805 2.0567 2.05312 0.799805 3.53809 0.799805Z" stroke="#016F54" stroke-width="1.6"/>
<path d="M3.53809 11.375C5.02285 11.3753 6.27539 12.6321 6.27539 14.2432C6.27526 15.8541 5.02277 17.1101 3.53809 17.1104C2.0532 17.1104 0.799938 15.8543 0.799805 14.2432C0.799805 12.6319 2.05312 11.375 3.53809 11.375Z" stroke="#016F54" stroke-width="1.6"/>
<path d="M3.53809 21.9199C5.02285 21.9202 6.27539 23.177 6.27539 24.7881C6.27526 26.3991 5.02277 27.655 3.53809 27.6553C2.0532 27.6553 0.799938 26.3992 0.799805 24.7881C0.799805 23.1768 2.05312 21.9199 3.53809 21.9199Z" stroke="#016F54" stroke-width="1.6"/>
<path d="M3.53809 32.4644C5.02285 32.4646 6.27539 33.7214 6.27539 35.3325C6.27526 36.9435 5.02277 38.1994 3.53809 38.1997C2.0532 38.1997 0.799938 36.9437 0.799805 35.3325C0.799805 33.7213 2.05312 32.4644 3.53809 32.4644Z" stroke="#016F54" stroke-width="1.6"/>
<path d="M13.8564 0.799805C15.3412 0.800064 16.5938 2.05687 16.5938 3.66797C16.5936 5.27895 15.3411 6.5349 13.8564 6.53516C12.3716 6.53516 11.1183 5.27912 11.1182 3.66797C11.1182 2.0567 12.3715 0.799805 13.8564 0.799805Z" stroke="#016F54" stroke-width="1.6"/>
<path d="M13.8564 11.375C15.3412 11.3753 16.5938 12.6321 16.5938 14.2432C16.5936 15.8541 15.3411 17.1101 13.8564 17.1104C12.3716 17.1104 11.1183 15.8543 11.1182 14.2432C11.1182 12.6319 12.3715 11.375 13.8564 11.375Z" stroke="#016F54" stroke-width="1.6"/>
<path d="M13.8564 21.9199C15.3412 21.9202 16.5938 23.177 16.5938 24.7881C16.5936 26.3991 15.3411 27.655 13.8564 27.6553C12.3716 27.6553 11.1183 26.3992 11.1182 24.7881C11.1182 23.1768 12.3715 21.9199 13.8564 21.9199Z" stroke="#016F54" stroke-width="1.6"/>
<path d="M13.8564 32.4644C15.3412 32.4646 16.5938 33.7214 16.5938 35.3325C16.5936 36.9435 15.3411 38.1994 13.8564 38.1997C12.3716 38.1997 11.1183 36.9437 11.1182 35.3325C11.1182 33.7213 12.3715 32.4644 13.8564 32.4644Z" stroke="#016F54" stroke-width="1.6"/>
<path d="M24.1455 0.799805C25.6303 0.800064 26.8828 2.05687 26.8828 3.66797C26.8827 5.27895 25.6302 6.5349 24.1455 6.53516C22.6606 6.53516 21.4074 5.27912 21.4072 3.66797C21.4072 2.0567 22.6605 0.799805 24.1455 0.799805Z" stroke="#016F54" stroke-width="1.6"/>
<path d="M24.1455 11.375C25.6303 11.3753 26.8828 12.6321 26.8828 14.2432C26.8827 15.8541 25.6302 17.1101 24.1455 17.1104C22.6606 17.1104 21.4074 15.8543 21.4072 14.2432C21.4072 12.6319 22.6605 11.375 24.1455 11.375Z" stroke="#016F54" stroke-width="1.6"/>
<path d="M34.4326 0.799805C35.9174 0.800064 37.1699 2.05687 37.1699 3.66797C37.1698 5.27895 35.9173 6.5349 34.4326 6.53516C32.9477 6.53516 31.6945 5.27912 31.6943 3.66797C31.6943 2.0567 32.9477 0.799805 34.4326 0.799805Z" stroke="#016F54" stroke-width="1.6"/>
<path d="M34.4326 11.375C35.9174 11.3753 37.1699 12.6321 37.1699 14.2432C37.1698 15.8541 35.9173 17.1101 34.4326 17.1104C32.9477 17.1104 31.6945 15.8543 31.6943 14.2432C31.6943 12.6319 32.9477 11.375 34.4326 11.375Z" stroke="#016F54" stroke-width="1.6"/>
<path d="M29.3031 39.0002C28.743 39.0002 28.3008 38.5417 28.3008 37.961V22.1593C28.3008 21.5786 28.743 21.1201 29.3031 21.1201C29.8632 21.1201 30.3054 21.5786 30.3054 22.1593V37.961C30.3054 38.5417 29.8632 39.0002 29.3031 39.0002Z" fill="#016F54"/>
<path d="M37.9414 30.0446C37.9414 30.6253 37.4992 31.0837 36.9391 31.0837H21.6683C21.1082 31.0837 20.666 30.6253 20.666 30.0446C20.666 29.4638 21.1082 29.0054 21.6683 29.0054H36.9096C37.4697 29.0054 37.9414 29.4638 37.9414 30.0446Z" fill="#016F54"/>
</svg>
