<svg width="28" height="27" viewBox="0 0 28 27" fill="none" xmlns="http://www.w3.org/2000/svg">
<path d="M9.66667 1H3.88889C2.2934 1 1 2.24365 1 3.77778V9.33333M9.66667 26H3.88889C2.2934 26 1 24.7563 1 23.2222V17.6667M18.3333 1H24.1111C25.7066 1 27 2.24365 27 3.77778V9.33333M27 17.6667V23.2222C27 24.7563 25.7066 26 24.1111 26H18.3333" stroke="#005D47" stroke-width="2" stroke-linecap="round"/>
<path d="M14 18C16.7614 18 19 15.7614 19 13C19 10.2386 16.7614 8 14 8C11.2386 8 9 10.2386 9 13C9 15.7614 11.2386 18 14 18Z" stroke="#006A50" stroke-width="2" stroke-linecap="round"/>
</svg>
