<svg width="41" height="40" viewBox="0 0 41 40" fill="none" xmlns="http://www.w3.org/2000/svg">
<path d="M2.5819 11.3347L20.4898 21.0424L38.2761 11.3916M20.4898 38.2542V21.0234M30.6303 22.3533V15.4002L11.3838 4.98945M16.2917 1.91188L5.46175 7.55423C3.00777 8.82706 1 12.0186 1 14.6403V25.374C1 27.9956 3.00777 31.1872 5.46175 32.46L16.2917 38.1024C18.6037 39.2992 22.3962 39.2992 24.7082 38.1024L35.5383 32.46C37.9922 31.1872 40 27.9956 40 25.374V14.6403C40 12.0186 37.9922 8.82706 35.5383 7.55423L24.7082 1.91188C22.3759 0.696039 18.6037 0.696039 16.2917 1.91188Z" stroke="#016F54" stroke-width="2" stroke-linecap="round" stroke-linejoin="round"/>
</svg>
