<svg width="14" height="14" viewBox="0 0 14 14" fill="none" xmlns="http://www.w3.org/2000/svg">
<path d="M7.00836 1.45312H2.61167C2.2785 1.45313 1.95898 1.58547 1.7234 1.82106C1.48782 2.05664 1.35547 2.37616 1.35547 2.70932V11.5027C1.35547 11.8359 1.48782 12.1554 1.7234 12.391C1.95898 12.6266 2.2785 12.7589 2.61167 12.7589H11.4051C11.7382 12.7589 12.0577 12.6266 12.2933 12.391C12.5289 12.1554 12.6613 11.8359 12.6613 11.5027V7.10602" stroke="#878787" stroke-width="1.41322" stroke-linecap="round" stroke-linejoin="round"/>
<path d="M11.0122 1.21789C11.2621 0.968014 11.601 0.827637 11.9544 0.827637C12.3077 0.827637 12.6466 0.968014 12.8965 1.21789C13.1464 1.46776 13.2868 1.80666 13.2868 2.16004C13.2868 2.51341 13.1464 2.85231 12.8965 3.10218L7.23545 8.76387C7.0863 8.91288 6.90205 9.02196 6.69968 9.08106L4.89515 9.60866C4.8411 9.62443 4.78381 9.62537 4.72927 9.6114C4.67473 9.59743 4.62496 9.56905 4.58515 9.52924C4.54534 9.48943 4.51696 9.43965 4.50299 9.38512C4.48902 9.33058 4.48996 9.27329 4.50573 9.21924L5.03333 7.41471C5.0927 7.2125 5.202 7.02847 5.35115 6.87957L11.0122 1.21789Z" stroke="#878787" stroke-width="1.41322" stroke-linecap="round" stroke-linejoin="round"/>
</svg>
