<svg width="28" height="28" viewBox="0 0 28 28" fill="none" xmlns="http://www.w3.org/2000/svg">
<path d="M26.1653 22.3365L16.1733 2.9071C15.9554 2.47993 15.6395 2.12463 15.2577 1.87744C14.8759 1.63024 14.4419 1.5 14 1.5C13.5581 1.5 13.1242 1.63024 12.7424 1.87744C12.3606 2.12463 12.0446 2.47993 11.8268 2.9071L1.83473 22.3365C1.61451 22.7602 1.49903 23.2412 1.50001 23.7305C1.50098 24.2199 1.61837 24.7002 1.84028 25.1229C2.06219 25.5456 2.38073 25.8956 2.76361 26.1374C3.14649 26.3792 3.5801 26.5043 4.02049 26.4999H24.0046C24.4428 26.4994 24.8733 26.3708 25.2527 26.127C25.632 25.8831 25.947 25.5327 26.166 25.1108C26.3849 24.689 26.5001 24.2105 26.5 23.7236C26.4999 23.2366 26.3845 22.7582 26.1653 22.3365Z" stroke="#FF0000" stroke-width="2" stroke-linecap="round" stroke-linejoin="round"/>
<path d="M14.0117 9.84668V15.3979" stroke="#FF0000" stroke-width="2" stroke-linecap="round" stroke-linejoin="round"/>
<path d="M14.0117 20.9492H14.0242" stroke="#FF0000" stroke-width="2" stroke-linecap="round" stroke-linejoin="round"/>
</svg>
