<svg width="28" height="28" viewBox="0 0 28 28" fill="none" xmlns="http://www.w3.org/2000/svg">
<path d="M12.6111 26.1608C13.0334 26.3803 13.5124 26.4958 14 26.4958C14.4876 26.4958 14.9666 26.3803 15.3889 26.1608L25.1111 21.1607C25.533 20.9414 25.8834 20.6262 26.1271 20.2467C26.3709 19.8671 26.4995 19.4365 26.5 18.9981V8.99771C26.4995 8.55929 26.3709 8.12869 26.1271 7.74912C25.8834 7.36954 25.533 7.05434 25.1111 6.83513L15.3889 1.83495C14.9666 1.61552 14.4876 1.5 14 1.5C13.5124 1.5 13.0334 1.61552 12.6111 1.83495L2.88889 6.83513C2.46703 7.05434 2.11664 7.36954 1.87286 7.74912C1.62909 8.12869 1.5005 8.55929 1.5 8.99771V18.9981C1.5005 19.4365 1.62909 19.8671 1.87286 20.2467C2.11664 20.6262 2.46703 20.9414 2.88889 21.1607L12.6111 26.1608Z" stroke="#1ECA9F" stroke-width="2" stroke-linecap="round" stroke-linejoin="round"/>
<path d="M14 26.5005V14" stroke="#1ECA9F" stroke-width="2" stroke-linecap="round" stroke-linejoin="round"/>
<path d="M1.91797 7.74902L12.6166 13.6667C13.0379 13.8848 13.5153 13.9995 14.0013 13.9995C14.4873 13.9995 14.9647 13.8848 15.386 13.6667L26.0846 7.74902" stroke="#1ECA9F" stroke-width="2" stroke-linecap="round" stroke-linejoin="round"/>
<path d="M7.75 4.33691L20.25 10.7746" stroke="#1ECA9F" stroke-width="2" stroke-linecap="round" stroke-linejoin="round"/>
</svg>
