<svg width="25" height="26" viewBox="0 0 25 26" fill="none" xmlns="http://www.w3.org/2000/svg">
<path d="M18.4223 9.06912C18.4223 7.44835 17.7785 5.89397 16.6324 4.74791C15.4864 3.60186 13.932 2.95801 12.3112 2.95801C10.6904 2.95801 9.13605 3.60186 7.98999 4.74791C6.84393 5.89397 6.20009 7.44835 6.20009 9.06912C6.20009 16.1987 3.14453 18.2358 3.14453 18.2358H21.4779C21.4779 18.2358 18.4223 16.1987 18.4223 9.06912Z" stroke="#666666" stroke-width="1.83333" stroke-linecap="round" stroke-linejoin="round"/>
<path d="M14.0729 22.3096C13.8938 22.6183 13.6368 22.8745 13.3276 23.0526C13.0183 23.2307 12.6677 23.3245 12.3109 23.3245C11.954 23.3245 11.6034 23.2307 11.2942 23.0526C10.9849 22.8745 10.7279 22.6183 10.5488 22.3096" stroke="#666666" stroke-width="1.83333" stroke-linecap="round" stroke-linejoin="round"/>
</svg>
