<svg width="27" height="28" viewBox="0 0 27 28" fill="none" xmlns="http://www.w3.org/2000/svg">
<path d="M8.42329 26.5003C9.11226 26.5003 9.67079 25.9393 9.67079 25.2472C9.67079 24.5552 9.11226 23.9941 8.42329 23.9941C7.73431 23.9941 7.17578 24.5552 7.17578 25.2472C7.17578 25.9393 7.73431 26.5003 8.42329 26.5003Z" stroke="#00C493" stroke-width="2" stroke-linecap="round" stroke-linejoin="round"/>
<path d="M22.144 26.5003C22.833 26.5003 23.3915 25.9393 23.3915 25.2472C23.3915 24.5552 22.833 23.9941 22.144 23.9941C21.455 23.9941 20.8965 24.5552 20.8965 25.2472C20.8965 25.9393 21.455 26.5003 22.144 26.5003Z" stroke="#00C493" stroke-width="2" stroke-linecap="round" stroke-linejoin="round"/>
<path d="M1 1.5H3.49501L6.81337 17.0633C6.9351 17.6333 7.25084 18.1428 7.70623 18.5042C8.16162 18.8655 8.72818 19.0561 9.30838 19.0432H21.509C22.0768 19.0422 22.6273 18.8468 23.0696 18.4891C23.5119 18.1314 23.8195 17.6329 23.9416 17.0758L26 7.76542H4.82984" stroke="#00C493" stroke-width="2" stroke-linecap="round" stroke-linejoin="round"/>
</svg>
