<svg width="28" height="28" viewBox="0 0 28 28" fill="none" xmlns="http://www.w3.org/2000/svg">
<path d="M13.4074 1.88655C13.4622 1.77049 13.5468 1.6728 13.6517 1.6045C13.7566 1.53619 13.8776 1.5 14.0011 1.5C14.1246 1.5 14.2456 1.53619 14.3505 1.6045C14.4554 1.6728 14.54 1.77049 14.5948 1.88655L17.4821 8.01987C17.6723 8.42356 17.953 8.77281 18.3003 9.03766C18.6475 9.3025 19.0508 9.47502 19.4756 9.54041L25.9325 10.5314C26.0549 10.55 26.1698 10.6041 26.2644 10.6876C26.3589 10.7712 26.4293 10.8808 26.4675 11.0041C26.5058 11.1274 26.5103 11.2594 26.4807 11.3853C26.4511 11.5112 26.3885 11.6259 26.3 11.7164L21.6304 16.4851C21.3225 16.7999 21.0921 17.1884 20.959 17.6172C20.826 18.046 20.7943 18.5023 20.8668 18.9468L21.9692 25.6844C21.9908 25.8127 21.9775 25.9447 21.931 26.0655C21.8845 26.1862 21.8066 26.2908 21.7061 26.3674C21.6056 26.4439 21.4867 26.4893 21.3628 26.4983C21.2389 26.5074 21.1151 26.4797 21.0055 26.4185L15.2335 23.2358C14.8532 23.0264 14.4301 22.917 14.0005 22.917C13.5709 22.917 13.1478 23.0264 12.7675 23.2358L6.99675 26.4185C6.88718 26.4793 6.76352 26.5067 6.63985 26.4975C6.51618 26.4883 6.39746 26.4428 6.29719 26.3664C6.19692 26.2899 6.11912 26.1854 6.07266 26.0649C6.02619 25.9443 6.01292 25.8125 6.03434 25.6844L7.13549 18.9482C7.20823 18.5034 7.17672 18.0468 7.04367 17.6177C6.91063 17.1886 6.68004 16.7999 6.37181 16.4851L1.70223 11.7177C1.61298 11.6273 1.54974 11.5124 1.5197 11.3861C1.48967 11.2599 1.49405 11.1273 1.53235 11.0035C1.57064 10.8798 1.64132 10.7698 1.73632 10.686C1.83133 10.6023 1.94684 10.5483 2.0697 10.5301L8.52537 9.54041C8.95065 9.47553 9.35453 9.30323 9.70224 9.03836C10.05 8.77348 10.3311 8.42395 10.5214 8.01987L13.4074 1.88655Z" stroke="#00C493" stroke-width="2" stroke-linecap="round" stroke-linejoin="round"/>
</svg>
