<svg width="34" height="33" viewBox="0 0 34 33" fill="none" xmlns="http://www.w3.org/2000/svg">
<path d="M2.29797 9.43093L16.9917 17.3504L31.5855 9.47737M16.9917 31.3916V17.3349M25.312 18.4198V12.7475L9.52002 4.25455M13.547 1.74391L4.66092 6.34687C2.6474 7.38524 1 9.98887 1 12.1276V20.884C1 23.0228 2.6474 25.6264 4.66092 26.6648L13.547 31.2677C15.4441 32.2441 18.5559 32.2441 20.4529 31.2677L29.3391 26.6648C31.3526 25.6264 33 23.0228 33 20.884V12.1276C33 9.98887 31.3526 7.38524 29.3391 6.34687L20.4529 1.74391C18.5392 0.752032 15.4441 0.752032 13.547 1.74391Z" stroke="#00C493" stroke-width="1.5" stroke-linecap="round" stroke-linejoin="round"/>
</svg>
