<svg width="33" height="40" viewBox="0 0 33 40" fill="none" xmlns="http://www.w3.org/2000/svg">
<path d="M12.9869 8.08698C12.7165 8.08721 12.455 8.18387 12.2494 8.3596C12.0438 8.53533 11.9077 8.77861 11.8654 9.04573L10.0019 20.8649C10.0887 20.3129 10.5644 19.9061 11.1234 19.9061H16.5841C22.0799 19.9061 26.7433 15.8969 27.5954 10.4639C27.6588 10.0583 27.6948 9.64883 27.703 9.23836C26.3063 8.50603 24.6657 8.08698 22.868 8.08698H12.9869Z" fill="#001C64"/>
<path d="M27.703 9.23836C27.6948 9.64883 27.6588 10.0583 27.5954 10.4639C26.7433 15.8969 22.0799 19.9061 16.5841 19.9061H11.1234C10.5644 19.9061 10.0887 20.3129 10.0019 20.8649L8.28838 31.7262L7.21512 38.5397C7.19417 38.6713 7.20202 38.8059 7.23815 38.9342C7.27428 39.0625 7.33783 39.1815 7.42439 39.2828C7.51094 39.3842 7.61846 39.4656 7.73952 39.5213C7.86058 39.5771 7.99231 39.606 8.1256 39.6059H14.0527C14.3232 39.6057 14.5847 39.509 14.7902 39.3333C14.9958 39.1576 15.132 38.9143 15.1743 38.6472L16.7355 28.7451C16.7778 28.4778 16.9141 28.2344 17.1198 28.0586C17.3256 27.8829 17.5873 27.7863 17.8579 27.7863H21.3476C26.8434 27.7863 31.5068 23.7771 32.3589 18.3441C32.964 14.488 31.0219 10.9786 27.703 9.23836Z" fill="#0070E0"/>
<path d="M6.25288 0.208984C5.6943 0.208984 5.21823 0.615301 5.13135 1.16686L0.480197 30.6603C0.392001 31.2202 0.824656 31.7266 1.39157 31.7266L8.28838 31.7262L10.0019 20.8649L11.8654 9.04573C11.9077 8.77861 12.0438 8.53533 12.2494 8.3596C12.455 8.18387 12.7165 8.08721 12.9869 8.08698H22.868C24.6657 8.08698 26.3063 8.50603 27.703 9.23836C27.7986 4.29192 23.7166 0.208984 18.1049 0.208984H6.25288Z" fill="#003087"/>
</svg>
