<svg width="27" height="29" viewBox="0 0 27 29" fill="none" xmlns="http://www.w3.org/2000/svg">
<path d="M7.11148 13.6148V13.5996M19.8885 13.6148V13.5996M7.11148 9.01132V7.4819C7.11148 5.8594 7.78455 4.30336 8.98263 3.15607C10.1807 2.00879 11.8057 1.36426 13.5 1.36426C15.1943 1.36426 16.8193 2.00879 18.0174 3.15608C19.2154 4.30336 19.8885 5.8594 19.8885 7.4819V9.01132M7.11148 9.01132H5.25923C3.59794 9.01132 2.21397 10.2308 2.07601 11.8161L1.01125 24.0514C0.856061 25.8348 2.32571 27.3643 4.19448 27.3643H22.8055C24.6743 27.3643 26.1439 25.8348 25.9887 24.0514L24.924 11.8161C24.786 10.2308 23.4021 9.01132 21.7408 9.01132H19.8885M7.11148 9.01132H19.8885" stroke="#4C4C4C" stroke-width="2" stroke-linecap="round" stroke-linejoin="round"/>
</svg>
