<svg width="43" height="40" viewBox="0 0 43 40" fill="none" xmlns="http://www.w3.org/2000/svg">
<path d="M25.8535 14.583C26.0983 15.2879 26.7361 15.7749 27.4707 15.833L27.6191 15.8389H41.5518L30.3887 23.4268C29.7335 23.8722 29.4354 24.6778 29.6289 25.4346L29.6738 25.5859L33.9648 37.9424L22.5508 30.1836L22.4297 30.1074C21.8544 29.7773 21.1456 29.7773 20.5703 30.1074L20.4492 30.1836L9.03418 37.9424L13.3262 25.5859C13.5861 24.8374 13.3445 24.0122 12.7373 23.5205L12.6113 23.4268L1.44824 15.8389H15.3809C16.1269 15.8389 16.7968 15.3963 17.0928 14.7217L17.1465 14.583L21.5 2.04883L25.8535 14.583Z" stroke="#016F54" stroke-width="2"/>
</svg>
