<svg width="27" height="19" viewBox="0 0 27 19" fill="none" xmlns="http://www.w3.org/2000/svg">
<path d="M2.66667 18.6667C1.93333 18.6667 1.30556 18.4056 0.783333 17.8833C0.261111 17.3611 0 16.7333 0 16V2.66667C0 1.93333 0.261111 1.30556 0.783333 0.783333C1.30556 0.261111 1.93333 0 2.66667 0H24C24.7333 0 25.3611 0.261111 25.8833 0.783333C26.4056 1.30556 26.6667 1.93333 26.6667 2.66667V16C26.6667 16.7333 26.4056 17.3611 25.8833 17.8833C25.3611 18.4056 24.7333 18.6667 24 18.6667H2.66667ZM2.66667 16H24V2.66667H2.66667V16ZM8 14.6667H18.6667V12H8V14.6667ZM4 10.6667H6.66667V8H4V10.6667ZM8 10.6667H10.6667V8H8V10.6667ZM12 10.6667H14.6667V8H12V10.6667ZM16 10.6667H18.6667V8H16V10.6667ZM20 10.6667H22.6667V8H20V10.6667ZM4 6.66667H6.66667V4H4V6.66667ZM8 6.66667H10.6667V4H8V6.66667ZM12 6.66667H14.6667V4H12V6.66667ZM16 6.66667H18.6667V4H16V6.66667ZM20 6.66667H22.6667V4H20V6.66667Z" fill="#0C7B5F"/>
</svg>
