<svg width="41" height="41" viewBox="0 0 41 41" fill="none" xmlns="http://www.w3.org/2000/svg">
<rect x="0.0888672" y="0.143555" width="40" height="40" rx="18" fill="#F5F5F5"/>
<path d="M28.4225 29.5186V27.4352C28.4225 26.3302 27.9835 25.2703 27.2021 24.4889C26.4207 23.7075 25.3609 23.2686 24.2559 23.2686H15.9225C14.8175 23.2686 13.7576 23.7075 12.9762 24.4889C12.1948 25.2703 11.7559 26.3302 11.7559 27.4352V29.5186" stroke="#666666" stroke-width="1.83333" stroke-linecap="round" stroke-linejoin="round"/>
<path d="M20.0885 19.1019C22.3897 19.1019 24.2552 17.2364 24.2552 14.9352C24.2552 12.634 22.3897 10.7686 20.0885 10.7686C17.7874 10.7686 15.9219 12.634 15.9219 14.9352C15.9219 17.2364 17.7874 19.1019 20.0885 19.1019Z" stroke="#666666" stroke-width="1.83333" stroke-linecap="round" stroke-linejoin="round"/>
</svg>
