<svg width="26" height="27" viewBox="0 0 26 27" fill="none" xmlns="http://www.w3.org/2000/svg">
<path d="M2 19.2473C2 20.5727 3.07452 21.6473 4.4 21.6473C5.72548 21.6473 6.8 20.5727 6.8 19.2473C6.8 17.9218 5.72548 16.8473 4.4 16.8473C3.07452 16.8473 2 17.9218 2 19.2473Z" fill="#4D4D4D"/>
<path d="M16.4 4.84727C16.4 6.17275 17.4745 7.24727 18.8 7.24727C20.1255 7.24727 21.2 6.17275 21.2 4.84727C21.2 3.52178 20.1255 2.44727 18.8 2.44727C17.4745 2.44727 16.4 3.52178 16.4 4.84727Z" fill="#4D4D4D"/>
<path d="M2 4.84727C2 6.17275 3.07452 7.24727 4.4 7.24727C5.72548 7.24727 6.8 6.17275 6.8 4.84727C6.8 3.52178 5.72548 2.44727 4.4 2.44727C3.07452 2.44727 2 3.52178 2 4.84727Z" fill="#4D4D4D"/>
<path d="M18.8 24.6475V19.2473M13.5 19.2473H18.8M24 19.2473H18.8M18.8 14.6475V19.2473M4.4 21.6473C3.07452 21.6473 2 20.5727 2 19.2473C2 17.9218 3.07452 16.8473 4.4 16.8473C5.72548 16.8473 6.8 17.9218 6.8 19.2473C6.8 20.5727 5.72548 21.6473 4.4 21.6473ZM18.8 7.24727C17.4745 7.24727 16.4 6.17275 16.4 4.84727C16.4 3.52178 17.4745 2.44727 18.8 2.44727C20.1255 2.44727 21.2 3.52178 21.2 4.84727C21.2 6.17275 20.1255 7.24727 18.8 7.24727ZM4.4 7.24727C3.07452 7.24727 2 6.17275 2 4.84727C2 3.52178 3.07452 2.44727 4.4 2.44727C5.72548 2.44727 6.8 3.52178 6.8 4.84727C6.8 6.17275 5.72548 7.24727 4.4 7.24727Z" stroke="#4D4D4D" stroke-width="4" stroke-linecap="round" stroke-linejoin="round"/>
</svg>
